<svg width="18" height="18" viewBox="0 0 18 18" fill="none" xmlns="http://www.w3.org/2000/svg">
<path fill-rule="evenodd" clip-rule="evenodd" d="M8.99935 0.666992C13.6018 0.666992 17.3327 4.39783 17.3327 9.00033C17.3327 13.6028 13.6018 17.3337 8.99935 17.3337C4.39685 17.3337 0.666016 13.6028 0.666016 9.00033C0.666016 4.39783 4.39685 0.666992 8.99935 0.666992ZM10.3468 10.6537C8.22264 11.2791 6.36557 12.5908 5.06602 14.3837C6.20688 15.2196 7.58498 15.6693 8.99935 15.667C9.86464 15.6684 10.7219 15.5006 11.5227 15.1728C11.2605 13.6353 10.8672 12.1231 10.3468 10.6528V10.6537ZM11.9952 10.3178C12.4385 11.6037 12.7952 12.9303 13.0568 14.2912C14.2795 13.3537 15.1398 12.0219 15.4918 10.522C14.3471 10.2506 13.1637 10.1815 11.9952 10.3178ZM9.29185 8.09366C7.062 8.87998 4.68507 9.16009 2.33352 8.91366L2.33268 9.00033C2.33268 10.6062 2.90102 12.0795 3.84685 13.2303C5.3271 11.2659 7.38945 9.81856 9.74018 9.09449C9.59744 8.75819 9.44797 8.42479 9.29185 8.09449V8.09366ZM14.406 5.09949C13.3268 6.04207 12.1247 6.83401 10.8327 7.45366C11.0277 7.87033 11.2135 8.29116 11.3893 8.71783C12.806 8.50116 14.2643 8.54616 15.6643 8.85199C15.6365 7.50225 15.1975 6.19313 14.406 5.09949ZM6.14435 2.97533C5.27337 3.38927 4.50228 3.9868 3.88403 4.72688C3.26578 5.46697 2.81502 6.33208 2.56268 7.26283C4.57552 7.46611 6.60857 7.23886 8.52685 6.59616C7.82902 5.32851 7.03239 4.11782 6.14435 2.97533ZM8.99935 2.33366C8.59935 2.33366 8.20768 2.36866 7.82852 2.43616C8.66285 3.55712 9.41562 4.73654 10.081 5.96533C11.2327 5.41686 12.3052 4.71554 13.2693 3.88033C12.072 2.87891 10.5602 2.33131 8.99935 2.33366Z" fill="#EA4C89"/>
</svg>
