<svg width="16" height="16" viewBox="0 0 16 16" fill="none" xmlns="http://www.w3.org/2000/svg">
<path fill-rule="evenodd" clip-rule="evenodd" d="M14.4608 1.8825C14.5329 1.8001 14.588 1.7043 14.6231 1.60059C14.6581 1.49689 14.6724 1.38729 14.6651 1.27807C14.6578 1.16884 14.629 1.06213 14.5804 0.964013C14.5319 0.865901 14.4645 0.778313 14.3821 0.70625C14.2997 0.634187 14.2039 0.579061 14.1002 0.544018C13.9965 0.508975 13.8869 0.494703 13.7776 0.502016C13.6684 0.509328 13.5617 0.538083 13.4636 0.586637C13.3655 0.635192 13.2779 0.702596 13.2058 0.785L8.9475 5.65167L5.33333 0.833333C5.25571 0.729837 5.15506 0.645834 5.03934 0.587977C4.92363 0.530121 4.79604 0.5 4.66667 0.5H1.33333C1.17857 0.5 1.02687 0.543096 0.895224 0.624458C0.763578 0.70582 0.657188 0.822234 0.587978 0.960655C0.518767 1.09908 0.489469 1.25404 0.503368 1.40817C0.517266 1.56231 0.573811 1.70953 0.666667 1.83333L6.03083 8.985L1.53917 14.1183C1.4671 14.2007 1.41198 14.2965 1.37693 14.4002C1.34189 14.5039 1.32762 14.6135 1.33493 14.7228C1.34225 14.832 1.371 14.9387 1.41955 15.0368C1.46811 15.1349 1.53551 15.2225 1.61792 15.2946C1.70032 15.3666 1.79611 15.4218 1.89982 15.4568C2.00353 15.4919 2.11313 15.5061 2.22235 15.4988C2.33158 15.4915 2.43829 15.4628 2.5364 15.4142C2.63452 15.3656 2.7221 15.2982 2.79417 15.2158L7.0525 10.3483L10.6667 15.1667C10.7443 15.2702 10.8449 15.3542 10.9607 15.412C11.0764 15.4699 11.204 15.5 11.3333 15.5H14.6667C14.8214 15.5 14.9731 15.4569 15.1048 15.3755C15.2364 15.2942 15.3428 15.1778 15.412 15.0393C15.4812 14.9009 15.5105 14.746 15.4966 14.5918C15.4827 14.4377 15.4262 14.2905 15.3333 14.1667L9.96917 7.015L14.4608 1.8825ZM11.75 13.8333L3 2.16667H4.25L13 13.8333H11.75Z" fill="black"/>
</svg>
