<svg width="18" height="18" viewBox="0 0 18 18" fill="none" xmlns="http://www.w3.org/2000/svg">
<path fill-rule="evenodd" clip-rule="evenodd" d="M8.99935 0.666992C13.6018 0.666992 17.3327 4.39783 17.3327 9.00033C17.3327 13.6028 13.6018 17.3337 8.99935 17.3337C4.39685 17.3337 0.666016 13.6028 0.666016 9.00033C0.666016 4.39783 4.39685 0.666992 8.99935 0.666992ZM10.2343 13.117C9.41238 13.1841 8.58631 13.1841 7.76435 13.117C7.84185 13.4478 7.92852 13.7545 8.02268 14.0353C8.23185 14.6645 8.46435 15.1128 8.68102 15.387C8.78685 15.522 8.87268 15.5937 8.93102 15.6287L8.97352 15.652L8.99852 15.6587L9.02518 15.652L9.06768 15.6295C9.16438 15.564 9.24897 15.4823 9.31768 15.3878C9.53435 15.1128 9.76685 14.6645 9.97602 14.0353C10.0702 13.7545 10.1568 13.4478 10.2343 13.117ZM3.00518 11.9212C3.76194 13.4704 5.08779 14.6676 6.70602 15.2628C6.60776 15.0334 6.51934 14.7998 6.44102 14.5628C6.25923 14.0083 6.11447 13.4424 6.00768 12.8687C4.97618 12.6598 3.96972 12.3422 3.00518 11.9212ZM14.9943 11.9212C14.0402 12.3378 13.0352 12.657 11.9902 12.8687C11.8839 13.4427 11.7391 14.009 11.5568 14.5637C11.4768 14.8053 11.3885 15.0403 11.2918 15.262C12.9107 14.6671 14.2371 13.4699 14.9943 11.9203V11.9212ZM10.646 8.05949C9.55297 8.20359 8.44573 8.20359 7.35268 8.05949C7.30513 9.1789 7.34442 10.3003 7.47018 11.4137C8.48633 11.5295 9.51236 11.5295 10.5285 11.4137C10.6209 10.6125 10.6669 9.80675 10.666 9.00033C10.666 8.68033 10.6593 8.36699 10.646 8.05866V8.05949ZM2.80602 6.52699C2.39859 7.54593 2.24972 8.64987 2.37268 9.74032C3.43396 10.3494 4.57453 10.8085 5.76185 11.1045C5.65939 9.98164 5.63878 8.85283 5.70018 7.72699C4.68871 7.45067 3.71626 7.04747 2.80602 6.52699ZM15.1927 6.52699C14.2824 7.04746 13.31 7.45066 12.2985 7.72699C12.3599 8.85283 12.3393 9.98165 12.2368 11.1045C13.4239 10.8085 14.5642 10.3494 15.6252 9.74032C15.748 8.65014 15.5991 7.5465 15.1918 6.52783L15.1927 6.52699ZM9.01268 2.34366L9.00352 2.34199L8.98685 2.34449L8.95518 2.35699C8.84857 2.42465 8.75535 2.51138 8.68018 2.61283C8.46352 2.88783 8.23185 3.33616 8.02185 3.96449C7.79685 4.63783 7.61518 5.46449 7.49435 6.39699C8.49289 6.53573 9.50581 6.53573 10.5043 6.39699C10.3835 5.46366 10.201 4.63783 9.97685 3.96449C9.76685 3.33616 9.53518 2.88699 9.31852 2.61283C9.24952 2.51865 9.16497 2.43693 9.06852 2.37116L9.01268 2.34366ZM6.70602 2.73866C5.4681 3.19362 4.39242 4.00458 3.61435 5.06949C4.31685 5.47283 5.06935 5.79949 5.86018 6.03866C5.99352 5.06866 6.19102 4.18616 6.44102 3.43699C6.52185 3.19449 6.61018 2.96033 6.70602 2.73866ZM11.2927 2.73866C11.3885 2.96033 11.476 3.19449 11.5577 3.43699C11.8077 4.18699 12.0052 5.06866 12.1385 6.03866C12.9215 5.80192 13.675 5.47677 14.3843 5.06949C13.6063 4.00455 12.5306 3.19357 11.2927 2.73866Z" fill="#1000BF"/>
</svg>
