<svg width="18" height="17" viewBox="0 0 18 17" fill="none" xmlns="http://www.w3.org/2000/svg">
<path d="M2.08999 5.9113L2.67916 6.50047C2.9075 6.72857 3.0647 7.01807 3.13166 7.3338H10.2508C10.4718 7.3338 10.6838 7.4216 10.8401 7.57788C10.9964 7.73416 11.0842 7.94612 11.0842 8.16714C11.0842 8.38815 10.9964 8.60011 10.8401 8.75639C10.6838 8.91267 10.4718 9.00047 10.2508 9.00047H3.16749V13.1671C3.16749 13.6092 3.34309 14.0331 3.65565 14.3456C3.96821 14.6582 4.39213 14.8338 4.83416 14.8338H13.1675C13.6095 14.8338 14.0334 14.6582 14.346 14.3456C14.6586 14.0331 14.8342 13.6092 14.8342 13.1671V9.00047H14.4175C14.1965 9.00047 13.9845 8.91267 13.8282 8.75639C13.672 8.60011 13.5842 8.38815 13.5842 8.16714C13.5842 7.94612 13.672 7.73416 13.8282 7.57788C13.9845 7.4216 14.1965 7.3338 14.4175 7.3338H14.87C14.937 7.01807 15.0942 6.72857 15.3225 6.50047L15.9117 5.9113C15.9885 5.83171 16.0805 5.76823 16.1822 5.72455C16.2838 5.68088 16.3932 5.65789 16.5038 5.65693C16.6145 5.65597 16.7242 5.67705 16.8266 5.71895C16.929 5.76085 17.0221 5.82273 17.1003 5.90097C17.1786 5.97922 17.2404 6.07226 17.2823 6.17467C17.3242 6.27709 17.3453 6.38682 17.3444 6.49747C17.3434 6.60812 17.3204 6.71747 17.2767 6.81914C17.2331 6.92081 17.1696 7.01276 17.09 7.08964L16.5008 7.6788V13.1671C16.5008 14.0512 16.1496 14.899 15.5245 15.5242C14.8994 16.1493 14.0515 16.5005 13.1675 16.5005H4.83416C3.95011 16.5005 3.10226 16.1493 2.47714 15.5242C1.85202 14.899 1.50083 14.0512 1.50083 13.1671V7.6788L0.911661 7.08964C0.759862 6.93247 0.675867 6.72197 0.677766 6.50347C0.679665 6.28497 0.767305 6.07596 0.921812 5.92145C1.07632 5.76695 1.28533 5.67931 1.50383 5.67741C1.72232 5.67551 1.93283 5.7595 2.08999 5.9113ZM15.2067 2.42214C15.4042 2.52101 15.5543 2.69425 15.6242 2.90379C15.694 3.11333 15.6778 3.34203 15.5792 3.53964L11.4125 11.873C11.3999 11.8987 11.386 11.9237 11.3708 11.948C11.1626 12.613 10.7233 13.1816 10.1323 13.5509C9.54127 13.9202 8.83764 14.0658 8.14862 13.9614C7.45961 13.857 6.83069 13.5095 6.37562 12.9817C5.92055 12.4539 5.66936 11.7807 5.66749 11.0838V10.6671C5.66749 10.4461 5.75529 10.2342 5.91157 10.0779C6.06785 9.9216 6.27981 9.8338 6.50083 9.8338H10.5692L14.0892 2.79464C14.188 2.59713 14.3613 2.44695 14.5708 2.3771C14.7804 2.30725 15.0091 2.32345 15.2067 2.42214ZM9.76333 11.5005H7.40499C7.49089 11.7446 7.65045 11.9561 7.86167 12.1057C8.07288 12.2553 8.32533 12.3357 8.58416 12.3357C8.84299 12.3357 9.09544 12.2553 9.30665 12.1057C9.51787 11.9561 9.67744 11.7446 9.76333 11.5005ZM10.2967 0.807136C10.3877 0.867863 10.4659 0.945934 10.5268 1.03689C10.5877 1.12785 10.6301 1.2299 10.6515 1.33724C10.6729 1.44457 10.673 1.55507 10.6517 1.66244C10.6305 1.7698 10.5882 1.87192 10.5275 1.96297L10.3475 2.23214C10.27 2.3484 10.2352 2.48792 10.2491 2.62695C10.2629 2.76597 10.3245 2.89591 10.4233 2.99464C10.7946 3.36592 11.0257 3.85438 11.0774 4.3769C11.129 4.89941 10.998 5.42367 10.7067 5.86047L10.5275 6.12964C10.4048 6.31352 10.2141 6.44114 9.99738 6.48443C9.78062 6.52772 9.55554 6.48313 9.37166 6.36047C9.18778 6.23781 9.06015 6.04712 9.01686 5.83036C8.97357 5.6136 9.01816 5.38852 9.14083 5.20464L9.32083 4.93547C9.3983 4.81921 9.43308 4.67968 9.41926 4.54066C9.40543 4.40163 9.34385 4.2717 9.24499 4.17297C8.87394 3.80174 8.64294 3.31343 8.59128 2.79111C8.53963 2.26878 8.67051 1.74469 8.96166 1.30797L9.14083 1.03797C9.20155 0.946909 9.27963 0.868703 9.37058 0.807819C9.46154 0.746935 9.5636 0.704565 9.67093 0.68313C9.77826 0.661694 9.88877 0.661613 9.99613 0.68289C10.1035 0.704167 10.2056 0.746386 10.2967 0.807136ZM5.80749 1.03797C5.92608 0.862589 6.10698 0.738918 6.31344 0.692075C6.5199 0.645231 6.73646 0.678726 6.91912 0.785757C7.10178 0.892787 7.23686 1.06533 7.29692 1.26834C7.35698 1.47136 7.33752 1.68962 7.24249 1.8788L7.19333 1.96214L7.01416 2.23214C6.93658 2.34831 6.90166 2.48777 6.91533 2.6268C6.92901 2.76582 6.99044 2.89581 7.08916 2.99464C7.44087 3.34631 7.66739 3.80373 7.73393 4.29662C7.80047 4.78951 7.70336 5.29062 7.45749 5.72297L7.37333 5.86047L7.19333 6.12964C7.0741 6.30347 6.89342 6.42566 6.68769 6.4716C6.48197 6.51753 6.26647 6.48379 6.08463 6.37718C5.90278 6.27056 5.7681 6.099 5.70771 5.89704C5.64731 5.69508 5.6657 5.47774 5.75916 5.2888L5.80833 5.20547L5.98749 4.93547C6.06507 4.8193 6.09999 4.67983 6.08632 4.54081C6.07265 4.40179 6.01122 4.2718 5.91249 4.17297C5.56079 3.8213 5.33426 3.36388 5.26772 2.87099C5.20118 2.37809 5.2983 1.87698 5.54416 1.44464L5.62833 1.30797L5.80749 1.03797Z" fill="#2276FF"/>
</svg>
