<svg width="16" height="17" viewBox="0 0 16 17" fill="none" xmlns="http://www.w3.org/2000/svg">
<path fill-rule="evenodd" clip-rule="evenodd" d="M2.42756 13.1171C1.14672 11.7088 0.796722 9.92712 0.952555 8.33546C1.12422 6.57962 1.92506 4.89546 2.96756 4.02629C4.36089 2.86546 5.82422 2.38879 7.09422 2.15546C7.71266 2.04933 8.33549 1.97064 8.96089 1.91962C9.29755 1.88796 9.63839 1.85629 9.96589 1.77462C10.6559 1.60212 11.3367 1.32212 11.8976 0.877124C12.1542 0.672958 12.4142 0.466291 12.7601 0.504624C12.8844 0.518455 13.004 0.560094 13.11 0.626453C13.216 0.692813 13.3058 0.78219 13.3726 0.887958C16.0392 5.11046 15.6367 9.59296 13.4092 12.4163C12.2967 13.8255 10.7342 14.8088 8.91172 15.0996C7.32172 15.3521 5.58422 15.0696 3.83339 14.153C3.67958 14.6311 3.5653 15.1211 3.49172 15.618C3.46045 15.8368 3.34354 16.0342 3.16671 16.1668C2.98987 16.2994 2.76761 16.3563 2.54881 16.325C2.33 16.2938 2.13258 16.1769 1.99998 16C1.86738 15.8232 1.81045 15.6009 1.84172 15.3821C1.94506 14.6613 2.14172 13.8938 2.42756 13.1171ZM7.39422 3.79462C7.98089 3.68712 8.53172 3.63546 9.06672 3.58296C9.50339 3.54129 9.94339 3.49796 10.3701 3.39129C11.0887 3.21556 11.7769 2.93297 12.4117 2.55296C14.2267 5.98379 13.7201 9.33129 12.1009 11.3846C11.2276 12.4913 10.0267 13.2346 8.65089 13.453C7.41506 13.6496 5.98422 13.433 4.45922 12.598C5.38589 10.7088 6.90089 8.89796 8.87339 7.91212C9.07119 7.81333 9.22166 7.64001 9.29167 7.43028C9.36168 7.22055 9.34552 6.9916 9.24672 6.79379C9.14793 6.59598 8.9746 6.44552 8.76487 6.37551C8.55515 6.3055 8.3262 6.32166 8.12839 6.42046C5.95506 7.50712 4.29006 9.38629 3.20756 11.3905C2.67339 10.5155 2.51339 9.49796 2.61172 8.49712C2.75256 7.05712 3.41172 5.82629 4.03422 5.30629C5.14089 4.38379 6.30756 3.99462 7.39506 3.79462H7.39422Z" fill="#008000"/>
</svg>
