<svg width="17" height="16" viewBox="0 0 17 16" fill="none" xmlns="http://www.w3.org/2000/svg">
<path fill-rule="evenodd" clip-rule="evenodd" d="M5.99959 0.500208C5.11553 0.500208 4.26769 0.851397 3.64257 1.47652C3.01744 2.10164 2.66626 2.94949 2.66626 3.83354V4.77187C1.95106 4.95724 1.31765 5.37485 0.865483 5.95916C0.413311 6.54346 0.167969 7.26138 0.167969 8.00021C0.167969 8.73904 0.413311 9.45695 0.865483 10.0413C1.31765 10.6256 1.95106 11.0432 2.66626 11.2285V12.1669C2.66621 12.844 2.87237 13.505 3.25729 14.062C3.6422 14.6191 4.18763 15.0457 4.82098 15.2851C5.45433 15.5245 6.14557 15.5654 6.80271 15.4022C7.45986 15.2391 8.05174 14.8797 8.49959 14.3719C8.94744 14.8797 9.53932 15.2391 10.1965 15.4022C10.8536 15.5654 11.5448 15.5245 12.1782 15.2851C12.8115 15.0457 13.357 14.6191 13.7419 14.062C14.1268 13.505 14.333 12.844 14.3329 12.1669V11.2285C15.0481 11.0432 15.6815 10.6256 16.1337 10.0413C16.5859 9.45695 16.8312 8.73904 16.8312 8.00021C16.8312 7.26138 16.5859 6.54346 16.1337 5.95916C15.6815 5.37485 15.0481 4.95724 14.3329 4.77187V3.83354C14.333 3.15645 14.1268 2.49541 13.7419 1.93837C13.357 1.38134 12.8115 0.95473 12.1782 0.715323C11.5448 0.475916 10.8536 0.435063 10.1965 0.598199C9.53932 0.761335 8.94744 1.12072 8.49959 1.62854C8.18711 1.27347 7.80247 0.989156 7.37136 0.794581C6.94024 0.600005 6.47258 0.499647 5.99959 0.500208ZM12.6663 5.50021V3.83354C12.6663 3.39151 12.4907 2.96759 12.1781 2.65503C11.8655 2.34247 11.4416 2.16687 10.9996 2.16687C10.5576 2.16687 10.1336 2.34247 9.82108 2.65503C9.50852 2.96759 9.33292 3.39151 9.33292 3.83354V7.61271C9.83945 7.31975 10.4144 7.16594 10.9996 7.16687C11.2206 7.16687 11.4326 7.25467 11.5888 7.41095C11.7451 7.56723 11.8329 7.77919 11.8329 8.00021C11.8329 8.22122 11.7451 8.43318 11.5888 8.58946C11.4326 8.74574 11.2206 8.83354 10.9996 8.83354C10.5576 8.83354 10.1336 9.00914 9.82108 9.3217C9.50852 9.63426 9.33292 10.0582 9.33292 10.5002V12.1669C9.33292 12.6089 9.50852 13.0328 9.82108 13.3454C10.1336 13.6579 10.5576 13.8335 10.9996 13.8335C11.4416 13.8335 11.8655 13.6579 12.1781 13.3454C12.4907 13.0328 12.6663 12.6089 12.6663 12.1669V11.2285C12.5726 11.2043 12.48 11.1759 12.3888 11.1435C12.1803 11.0699 12.0097 10.9166 11.9144 10.7172C11.819 10.5177 11.8068 10.2886 11.8804 10.0802C11.954 9.87179 12.1074 9.70115 12.3068 9.60582C12.5062 9.51049 12.7353 9.49828 12.9438 9.57187C13.1726 9.65262 13.4162 9.68244 13.6578 9.65924C13.8993 9.63604 14.1328 9.56039 14.3421 9.43757C14.5513 9.31474 14.7312 9.14772 14.8692 8.94815C15.0072 8.74858 15.1 8.52129 15.1411 8.28215C15.1821 8.04302 15.1704 7.7978 15.1069 7.56364C15.0433 7.32948 14.9294 7.11201 14.7731 6.92645C14.6168 6.74088 14.4218 6.59168 14.2019 6.48927C13.9819 6.38686 13.7422 6.33371 13.4996 6.33354C13.2786 6.33354 13.0666 6.24574 12.9103 6.08946C12.7541 5.93318 12.6663 5.72122 12.6663 5.50021ZM5.99959 8.83354C6.44162 8.83354 6.86554 9.00914 7.1781 9.3217C7.49066 9.63426 7.66626 10.0582 7.66626 10.5002V12.1669C7.66626 12.6089 7.49066 13.0328 7.1781 13.3454C6.86554 13.6579 6.44162 13.8335 5.99959 13.8335C5.55756 13.8335 5.13364 13.6579 4.82108 13.3454C4.50852 13.0328 4.33292 12.6089 4.33292 12.1669V11.2285C4.42709 11.2035 4.51959 11.176 4.61042 11.1435C4.81884 11.0699 4.98948 10.9166 5.08481 10.7172C5.18014 10.5177 5.19235 10.2886 5.11876 10.0802C5.04516 9.87179 4.89178 9.70115 4.69237 9.60582C4.49295 9.51049 4.26384 9.49828 4.05542 9.57187C3.82662 9.65262 3.58294 9.68244 3.34142 9.65924C3.0999 9.63604 2.86635 9.56039 2.6571 9.43757C2.44785 9.31474 2.26794 9.14772 2.12994 8.94815C1.99193 8.74858 1.89917 8.52129 1.85812 8.28215C1.81708 8.04302 1.82874 7.7978 1.8923 7.56364C1.95585 7.32948 2.06977 7.11201 2.22609 6.92645C2.38241 6.74088 2.57736 6.59168 2.79732 6.48927C3.01728 6.38686 3.25695 6.33371 3.49959 6.33354C3.7206 6.33354 3.93256 6.24574 4.08884 6.08946C4.24512 5.93318 4.33292 5.72122 4.33292 5.50021V3.83354C4.33292 3.39151 4.50852 2.96759 4.82108 2.65503C5.13364 2.34247 5.55756 2.16687 5.99959 2.16687C6.44162 2.16687 6.86554 2.34247 7.1781 2.65503C7.49066 2.96759 7.66626 3.39151 7.66626 3.83354V7.61271C7.15973 7.31975 6.58474 7.16594 5.99959 7.16687C5.77857 7.16687 5.56661 7.25467 5.41033 7.41095C5.25405 7.56723 5.16626 7.77919 5.16626 8.00021C5.16626 8.22122 5.25405 8.43318 5.41033 8.58946C5.56661 8.74574 5.77857 8.83354 5.99959 8.83354Z" fill="#FFA500"/>
</svg>
