<svg width="1040" height="4" viewBox="0 0 1040 4" fill="none" xmlns="http://www.w3.org/2000/svg">
<path d="M2 0L1.8526 0.3983C1.65933 0.92058 1.56273 1.18173 1.3722 1.37222C1.18173 1.56272 0.9206 1.65935 0.398333 1.85261L0 2L0.398333 2.14739C0.9206 2.34065 1.18173 2.43728 1.3722 2.62778C1.56273 2.81827 1.65933 3.07942 1.8526 3.6017L2 4L2.1474 3.6017C2.34067 3.07942 2.43727 2.81827 2.6278 2.62777C2.81827 2.43728 3.0794 2.34065 3.60167 2.14739L4 2L3.60167 1.85261C3.0794 1.65935 2.81827 1.56272 2.6278 1.37222C2.43727 1.18173 2.34067 0.92058 2.1474 0.3983L2 0Z" fill="#1BB425"/>
<path d="M0 2H1040" stroke="#E4E2E1" stroke-dasharray="2 2"/>
<path d="M1038 0L1037.85 0.3983C1037.66 0.92058 1037.56 1.18173 1037.37 1.37222C1037.18 1.56272 1036.92 1.65935 1036.4 1.85261L1036 2L1036.4 2.14739C1036.92 2.34065 1037.18 2.43728 1037.37 2.62778C1037.56 2.81827 1037.66 3.07942 1037.85 3.6017L1038 4L1038.15 3.6017C1038.34 3.07942 1038.44 2.81827 1038.63 2.62777C1038.82 2.43728 1039.08 2.34065 1039.6 2.14739L1040 2L1039.6 1.85261C1039.08 1.65935 1038.82 1.56272 1038.63 1.37222C1038.44 1.18173 1038.34 0.92058 1038.15 0.3983L1038 0Z" fill="#1BB425"/>
</svg>
