<svg width="24" height="20" viewBox="0 0 24 20" fill="none" xmlns="http://www.w3.org/2000/svg">
<rect x="0.5" y="0.5" width="23" height="19" rx="9.5" fill="#1BB425"/>
<rect x="0.5" y="0.5" width="23" height="19" rx="9.5" stroke="#DDDDDD"/>
<path fill-rule="evenodd" clip-rule="evenodd" d="M17.2991 9.56664C17.6896 9.95716 17.6896 10.5903 17.2991 10.9809L13.8814 14.3986C13.5559 14.724 13.0283 14.724 12.7029 14.3986C12.3774 14.0731 12.3774 13.5455 12.7029 13.2201L13.1088 12.8142C13.7387 12.1842 13.2925 11.1071 12.4016 11.1071L7.1136 11.1071C6.65337 11.1071 6.28027 10.734 6.28028 10.2737C6.28029 9.81349 6.65338 9.44041 7.1136 9.44041L12.4016 9.44041C13.2925 9.44041 13.7386 8.36327 13.1087 7.7333L12.7028 7.32746C12.3774 7.00203 12.3774 6.4744 12.7028 6.14896C13.0283 5.82353 13.5559 5.82353 13.8813 6.14896L17.2991 9.56664Z" fill="white"/>
</svg>
