<svg width="100" height="32" viewBox="0 0 100 32" fill="none" xmlns="http://www.w3.org/2000/svg">
<path d="M13.3333 9.33301L12.6455 11.1917C11.7437 13.629 11.2927 14.8477 10.4037 15.7367C9.51471 16.6257 8.29605 17.0766 5.85873 17.9786L4 18.6663L5.85873 19.3541C8.29605 20.2561 9.51471 20.707 10.4037 21.5959C11.2927 22.485 11.7437 23.7037 12.6455 26.1409L13.3333 27.9997L14.0211 26.1409C14.9231 23.7037 15.374 22.485 16.2629 21.5959C17.152 20.707 18.3707 20.2561 20.8079 19.3541L22.6667 18.6663L20.8079 17.9786C18.3707 17.0766 17.152 16.6257 16.2629 15.7367C15.374 14.8477 14.9231 13.629 14.0211 11.1917L13.3333 9.33301Z" fill="#1BB425"/>
<path d="M24 4L23.7052 4.7966C23.3187 5.84116 23.1255 6.36345 22.7444 6.74444C22.3635 7.12544 21.8412 7.31871 20.7967 7.70523L20 8L20.7967 8.29477C21.8412 8.68129 22.3635 8.87456 22.7444 9.25556C23.1255 9.63655 23.3187 10.1588 23.7052 11.2034L24 12L24.2948 11.2034C24.6813 10.1588 24.8745 9.63655 25.2556 9.25555C25.6365 8.87456 26.1588 8.68129 27.2033 8.29477L28 8L27.2033 7.70523C26.1588 7.31871 25.6365 7.12544 25.2556 6.74444C24.8745 6.36345 24.6813 5.84116 24.2948 4.7966L24 4Z" fill="#1BB425"/>
<path d="M47.6807 15.744L44.9287 16.128C44.694 15.0187 43.798 14.4427 42.6887 14.4427C41.622 14.4427 40.854 14.912 40.854 15.7653C40.854 16.5973 41.686 16.8107 42.838 17.024L43.99 17.1947C46.0167 17.536 47.9793 18.1333 47.9793 20.672C47.9793 23.1253 45.7393 24.2773 42.7953 24.2773C39.83 24.2773 37.8033 22.912 37.4193 20.7147L40.214 20.3307C40.47 21.6747 41.43 22.2933 42.8167 22.2933C44.0967 22.2933 44.9287 21.7387 44.9287 20.7787C44.9287 19.9893 44.0967 19.6693 42.8167 19.456L41.5793 19.264C39.766 18.9653 37.846 18.3253 37.846 15.8933C37.846 13.7387 40.0433 12.4587 42.6887 12.4587C45.3127 12.4587 47.318 13.7813 47.6807 15.744ZM56.8749 22.5067H56.7895C56.0215 23.5947 54.8269 24.2773 53.2055 24.2773C51.0509 24.2773 49.2375 23.0187 49.2375 20.16V12.7147H52.2242V19.392C52.2242 21.2053 52.9709 21.8667 54.3362 21.8667C55.5735 21.8667 56.7469 20.8853 56.7469 18.8587V12.7147H59.7122V24H56.8749V22.5067ZM67.7334 12.4587C70.5494 12.4587 72.6401 14.7413 72.6401 18.368C72.6401 21.9947 70.5494 24.2773 67.6694 24.2773C66.1974 24.2773 64.8961 23.7227 64.2134 22.528H64.1281V24.0213H61.2694V8.576H64.2561V14.0373H64.3414C64.9814 13.056 66.1334 12.4587 67.7334 12.4587ZM66.8374 21.9947C68.5227 21.9947 69.6107 20.736 69.6107 18.368C69.6107 16 68.5227 14.7413 66.8374 14.7413C65.1734 14.7413 64.0854 16 64.0854 18.368C64.0854 20.736 65.1734 21.9947 66.8374 21.9947ZM74.4154 19.2213V16.6613H81.0074V19.2213H74.4154ZM93.473 24H90.529C90.337 23.7867 90.1876 23.2107 90.1876 22.4427C89.5476 23.6587 87.9903 24.2773 86.4543 24.2773C84.4916 24.2773 82.6996 23.0187 82.6996 20.928C82.6996 18.496 84.4276 17.6 87.393 17.2373C89.6116 16.9813 90.1876 16.64 90.1876 15.9787C90.1876 15.1253 89.569 14.592 88.2036 14.592C87.1796 14.592 86.241 15.1253 85.8996 16.256L83.1263 15.8507C83.6383 13.7173 85.6223 12.4587 88.289 12.4587C91.7023 12.4587 93.1743 13.952 93.1743 16.1067V21.7387C93.1743 22.912 93.1956 23.552 93.473 24ZM90.1876 19.6267V18.4533C89.825 18.752 88.8223 18.9013 87.7343 19.0507C86.6463 19.2213 85.7503 19.7333 85.7503 20.7787C85.7503 21.696 86.369 22.208 87.3716 22.208C88.5876 22.208 90.1876 21.4827 90.1876 19.6267ZM94.7405 8.55467H97.7272V11.136H94.7405V8.55467ZM94.7405 12.7147H97.7272V24H94.7405V12.7147Z" fill="#1BB425"/>
</svg>
