<svg width="32" height="32" viewBox="0 0 32 32" fill="none" xmlns="http://www.w3.org/2000/svg">
<path d="M13.3333 9.33301L12.6455 11.1917C11.7437 13.629 11.2927 14.8477 10.4037 15.7367C9.51471 16.6257 8.29605 17.0766 5.85873 17.9786L4 18.6663L5.85873 19.3541C8.29605 20.2561 9.51471 20.707 10.4037 21.5959C11.2927 22.485 11.7437 23.7037 12.6455 26.1409L13.3333 27.9997L14.0211 26.1409C14.9231 23.7037 15.374 22.485 16.2629 21.5959C17.152 20.707 18.3707 20.2561 20.8079 19.3541L22.6667 18.6663L20.8079 17.9786C18.3707 17.0766 17.152 16.6257 16.2629 15.7367C15.374 14.8477 14.9231 13.629 14.0211 11.1917L13.3333 9.33301Z" fill="#1BB425"/>
<path d="M24 4L23.7052 4.7966C23.3187 5.84116 23.1255 6.36345 22.7444 6.74444C22.3635 7.12544 21.8412 7.31871 20.7967 7.70523L20 8L20.7967 8.29477C21.8412 8.68129 22.3635 8.87456 22.7444 9.25556C23.1255 9.63655 23.3187 10.1588 23.7052 11.2034L24 12L24.2948 11.2034C24.6813 10.1588 24.8745 9.63655 25.2556 9.25555C25.6365 8.87456 26.1588 8.68129 27.2033 8.29477L28 8L27.2033 7.70523C26.1588 7.31871 25.6365 7.12544 25.2556 6.74444C24.8745 6.36345 24.6813 5.84116 24.2948 4.7966L24 4Z" fill="#1BB425"/>
</svg>
