<svg width="1040" height="364" viewBox="0 0 1040 364" fill="none" xmlns="http://www.w3.org/2000/svg">
<path d="M0 16H1040" stroke="#E4E2E1" stroke-dasharray="2 2"/>
<path d="M0 348H1040" stroke="#E4E2E1" stroke-dasharray="2 2"/>
<path d="M122 364V0" stroke="#E4E2E1"/>
<path d="M122 14L121.853 14.3983C121.659 14.9206 121.563 15.1817 121.372 15.3722C121.182 15.5627 120.921 15.6594 120.398 15.8526L120 16L120.398 16.1474C120.921 16.3406 121.182 16.4373 121.372 16.6278C121.563 16.8183 121.659 17.0794 121.853 17.6017L122 18L122.147 17.6017C122.341 17.0794 122.437 16.8183 122.628 16.6278C122.818 16.4373 123.079 16.3406 123.602 16.1474L124 16L123.602 15.8526C123.079 15.6594 122.818 15.5627 122.628 15.3722C122.437 15.1817 122.341 14.9206 122.147 14.3983L122 14Z" fill="#1BB425"/>
<path d="M122 346L121.853 346.398C121.659 346.921 121.563 347.182 121.372 347.372C121.182 347.563 120.921 347.659 120.398 347.853L120 348L120.398 348.147C120.921 348.341 121.182 348.437 121.372 348.628C121.563 348.818 121.659 349.079 121.853 349.602L122 350L122.147 349.602C122.341 349.079 122.437 348.818 122.628 348.628C122.818 348.437 123.079 348.341 123.602 348.147L124 348L123.602 347.853C123.079 347.659 122.818 347.563 122.628 347.372C122.437 347.182 122.341 346.921 122.147 346.398L122 346Z" fill="#1BB425"/>
<path d="M918 364V0" stroke="#E4E2E1"/>
<path d="M918 14L917.853 14.3983C917.659 14.9206 917.563 15.1817 917.372 15.3722C917.182 15.5627 916.921 15.6594 916.398 15.8526L916 16L916.398 16.1474C916.921 16.3406 917.182 16.4373 917.372 16.6278C917.563 16.8183 917.659 17.0794 917.853 17.6017L918 18L918.147 17.6017C918.341 17.0794 918.437 16.8183 918.628 16.6278C918.818 16.4373 919.079 16.3406 919.602 16.1474L920 16L919.602 15.8526C919.079 15.6594 918.818 15.5627 918.628 15.3722C918.437 15.1817 918.341 14.9206 918.147 14.3983L918 14Z" fill="#1BB425"/>
<path d="M918 346L917.853 346.398C917.659 346.921 917.563 347.182 917.372 347.372C917.182 347.563 916.921 347.659 916.398 347.853L916 348L916.398 348.147C916.921 348.341 917.182 348.437 917.372 348.628C917.563 348.818 917.659 349.079 917.853 349.602L918 350L918.147 349.602C918.341 349.079 918.437 348.818 918.628 348.628C918.818 348.437 919.079 348.341 919.602 348.147L920 348L919.602 347.853C919.079 347.659 918.818 347.563 918.628 347.372C918.437 347.182 918.341 346.921 918.147 346.398L918 346Z" fill="#1BB425"/>
</svg>
